# xmcd
#
# Track frame offsets:
# 150
# 9770
# 23892
# 39968
# 52354
# 65711
# 86232
# 102914
# 113214
# 128996
# 143137
# 156669
#
# Disc length: 2235 seconds
#
#
# Revision: 0
# Processed by: cddbd v1.5.1PL2 Copyright (c) Steve Scherf et al.
# Submitted via: FreeRIP 2.944 
#
DISCID=a908b90c
DTITLE=Moda de Viola 2 - as 20 mais 
DYEAR=2005
DGENRE=Country
TTITLE0=Ser Feio Não e Defeito
TTITLE1=A Morte do Carreiro
TTITLE2=Boi Soberano
TTITLE3=Cabritinha de Ouro
TTITLE4=Rainha do Rodeio
TTITLE5=Fogueira
TTITLE6=Ultima Viagem
TTITLE7=O Velho Jequitiba
TTITLE8=TRes Cuiabanas
TTITLE9=O Cidadão e o Caipira
TTITLE10=Bandeirante Fernão
TTITLE11=Casa de Infancia
EXTD=Emerson@betim.mg.gov.br
EXTT0=
EXTT1=
EXTT2=
EXTT3=
EXTT4=
EXTT5=
EXTT6=
EXTT7=
EXTT8=
EXTT9=
EXTT10=
EXTT11=
PLAYORDER=
